<?xml version="1.0" standalone="no"?>
<!DOCTYPE svg PUBLIC "-//W3C//DTD SVG 20010904//EN"
 "http://www.w3.org/TR/2001/REC-SVG-20010904/DTD/svg10.dtd">
<svg version="1.0" xmlns="http://www.w3.org/2000/svg"
 width="300.000000pt" height="300.000000pt" viewBox="0 0 300.000000 300.000000"
 preserveAspectRatio="xMidYMid meet">
<metadata>
Created by potrace 1.10, written by Peter Selinger 2001-2011
</metadata>
<g transform="translate(0.000000,300.000000) scale(0.100000,-0.100000)"
fill="#ffffff" stroke="none">
<path d="M1695 2778 c-1 -118 -49 -187 -236 -338 -211 -171 -242 -243 -165
-374 26 -45 175 -210 183 -202 2 2 -23 45 -56 95 -117 178 -100 265 84 421
155 133 217 226 222 335 3 42 -2 72 -14 98 l-18 39 0 -74z"/>
<path d="M1787 2436 c-146 -60 -248 -147 -272 -230 -21 -75 -4 -134 64 -225
45 -60 53 -104 27 -153 -22 -42 -4 -34 47 21 48 51 65 99 52 143 -5 12 -26 49
-48 82 -21 32 -43 74 -49 93 -19 69 50 156 200 252 77 49 70 54 -21 17z"/>
<path d="M1975 1840 c-16 -7 -11 -9 22 -9 32 -1 51 -8 78 -32 30 -27 35 -37
35 -76 0 -24 -6 -56 -14 -71 -17 -33 -77 -90 -131 -126 -51 -34 -40 -33 40 3
79 36 128 73 155 116 26 42 26 108 0 145 -34 48 -130 74 -185 50z"/>
<path d="M1143 1815 c-67 -15 -175 -63 -180 -81 -13 -41 272 -71 522 -54 181
12 305 34 354 61 20 11 28 18 19 15 -53 -16 -327 -38 -483 -40 -196 -1 -273 7
-282 30 -8 22 6 33 78 59 72 27 63 30 -28 10z"/>
<path d="M1143 1590 c-41 -25 -42 -45 -2 -69 93 -57 436 -58 644 -2 l29 7 -36
22 c-33 21 -40 21 -89 10 -35 -8 -130 -13 -265 -13 -222 0 -239 3 -246 46 -3
19 -4 19 -35 -1z"/>
<path d="M1182 1380 c-12 -11 -19 -27 -16 -35 8 -21 82 -53 150 -66 93 -18
304 -6 392 22 l74 23 -48 24 c-45 23 -52 24 -115 13 -79 -13 -265 -14 -328 -2
-25 5 -50 16 -57 25 -15 21 -26 20 -52 -4z"/>
<path d="M990 1269 c-25 -5 -74 -23 -110 -41 -72 -36 -85 -63 -40 -85 93 -44
658 -69 889 -39 221 29 362 76 369 121 2 18 1 18 -10 4 -50 -62 -296 -99 -661
-99 -218 0 -359 12 -445 39 -94 28 -76 62 50 95 58 16 30 19 -42 5z"/>
<path d="M2153 1134 c-38 -27 -156 -62 -289 -86 -116 -21 -159 -23 -432 -23
-217 0 -291 -3 -260 -10 23 -5 180 -9 348 -9 278 0 314 2 410 22 113 24 224
71 240 103 13 22 12 23 -17 3z"/>
<path d="M1093 1033 c4 -3 10 -3 14 0 3 4 0 7 -7 7 -7 0 -10 -3 -7 -7z"/>
<path d="M860 585 c0 -313 -3 -330 -58 -377 -31 -26 -32 -26 -13 -50 l19 -23
37 20 c48 25 81 69 94 125 6 25 11 167 11 318 l0 272 -45 0 -45 0 0 -285z"/>
<path d="M1087 704 c-42 -13 -47 -17 -41 -37 9 -29 6 -28 45 -17 18 6 57 10
86 10 44 0 55 -4 72 -26 12 -15 21 -41 21 -60 0 -34 0 -34 -48 -34 -66 0 -143
-25 -172 -55 -17 -18 -25 -40 -28 -79 -4 -48 -1 -56 24 -85 50 -54 118 -52
225 6 4 2 9 -5 12 -17 4 -15 13 -20 36 -20 l31 0 0 165 c0 191 -8 222 -63 248
-43 21 -134 21 -200 1z m183 -269 c0 -54 -1 -55 -40 -75 -21 -11 -51 -20 -65
-20 -33 0 -65 33 -65 68 0 54 40 81 118 82 l52 0 0 -55z"/>
<path d="M1889 704 c-42 -12 -46 -16 -41 -39 3 -19 9 -24 21 -19 9 3 48 9 87
11 63 5 74 3 93 -16 14 -14 21 -34 21 -60 l0 -38 -68 -5 c-37 -3 -85 -13 -106
-23 -94 -45 -104 -174 -16 -217 48 -24 88 -22 145 7 47 23 64 21 65 -7 0 -5
14 -8 30 -8 l30 0 0 170 c0 193 -8 222 -65 246 -43 18 -136 17 -196 -2z m181
-268 c0 -46 -4 -56 -24 -69 -59 -39 -117 -33 -136 13 -27 66 16 109 113 110
l47 0 0 -54z"/>
<path d="M1410 708 c0 -2 29 -95 64 -208 l63 -205 55 -3 55 -3 36 94 c34 90
87 278 87 311 0 12 -10 16 -40 16 -43 0 -39 7 -60 -100 -14 -76 -62 -230 -70
-230 -4 0 -10 15 -13 33 -3 18 -24 92 -47 165 l-41 132 -45 0 c-24 0 -44 -1
-44 -2z"/>
</g>
</svg>
