 <svg  version="1.0" xmlns="http://www.w3.org/2000/svg"  width="300.000000pt" height="65.000000pt" viewBox="0 0 300.000000 65.000000"  preserveAspectRatio="xMidYMid meet">  <g transform="translate(0.000000,65.000000) scale(0.100000,-0.100000)" fill="#ffffff" stroke="none"> <path d="M2190 330 l0 -320 45 0 45 0 0 320 0 320 -45 0 -45 0 0 -320z"/> <path d="M2390 600 l0 -50 50 0 50 0 0 50 0 50 -50 0 -50 0 0 -50z"/> <path d="M877 623 c-4 -3 -7 -143 -7 -310 l0 -303 50 0 50 0 0 148 1 147 82 -90 c45 -50 107 -116 137 -148 l55 -58 58 3 59 3 -140 156 -141 156 139 149 139 149 -57 3 -57 4 -137 -144 -137 -143 -1 143 0 142 -43 0 c-24 0 -47 -3 -50 -7z"/> <path d="M1908 518 l-3 -53 -37 -3 c-37 -3 -38 -4 -38 -43 0 -39 0 -39 40 -39 l40 0 0 -140 c0 -157 9 -189 60 -215 16 -8 54 -15 85 -15 l55 0 0 40 c0 39 -1 40 -33 40 -59 0 -67 19 -67 163 l0 127 50 0 50 0 0 40 0 40 -50 0 -50 0 0 55 0 55 -49 0 -50 0 -3 -52z"/> <path d="M1469 442 c-34 -17 -65 -44 -84 -71 -28 -40 -30 -48 -30 -135 0 -84 3 -96 27 -134 73 -109 241 -134 342 -50 73 60 100 156 71 255 -41 140 -195 204 -326 135z m192 -101 c36 -36 39 -43 39 -96 0 -104 -45 -155 -135 -155 -41 0 -52 5 -81 35 -89 95 -30 255 94 255 38 0 50 -6 83 -39z"/> <path d="M2770 459 c-14 -5 -37 -22 -52 -36 l-28 -27 0 32 c0 31 -1 32 -45 32 l-45 0 0 -226 0 -225 48 3 47 3 5 157 c5 156 5 158 33 185 22 22 37 28 73 28 38 0 50 -5 70 -28 23 -27 24 -33 24 -188 l0 -159 51 0 50 0 -3 179 c-3 196 -6 206 -71 255 -30 22 -119 31 -157 15z"/> <path d="M2390 235 l0 -225 50 0 50 0 0 225 0 225 -50 0 -50 0 0 -225z"/> </g> </svg> 