 <svg  version="1.0" xmlns="http://www.w3.org/2000/svg"  width="300.000000pt" height="300.000000pt" viewBox="0 0 300.000000 300.000000"  preserveAspectRatio="xMidYMid meet">  <g transform="translate(0.000000,300.000000) scale(0.100000,-0.100000)" fill="#ffffff" stroke="none"> <path d="M870 2800 l0 -200 165 0 165 0 0 60 0 60 -95 0 -95 0 0 70 0 70 95 0 95 0 0 70 0 70 -165 0 -165 0 0 -200z"/> <path d="M1340 2942 c0 -54 4 -64 50 -130 28 -39 50 -76 50 -82 0 -5 -22 -10 -50 -10 l-50 0 0 -60 0 -60 160 0 160 0 0 63 c0 59 -3 65 -51 127 l-51 65 51 3 51 3 0 70 0 69 -160 0 -160 0 0 -58z"/> <path d="M1800 2942 c0 -54 4 -63 56 -137 l55 -80 -55 -3 -56 -3 0 -59 0 -60 165 0 165 0 0 58 c0 54 -3 60 -56 127 l-56 70 56 3 56 3 0 69 0 70 -165 0 -165 0 0 -58z"/> <path d="M435 2403 c4 -33 12 -125 30 -343 2 -30 7 -93 10 -140 3 -47 10 -128 15 -180 5 -52 12 -135 15 -185 3 -49 8 -108 10 -130 3 -22 7 -71 10 -110 3 -38 8 -92 10 -120 3 -27 12 -135 20 -240 15 -186 21 -270 30 -370 2 -27 7 -79 10 -115 13 -159 18 -215 19 -217 0 -1 202 -58 447 -126 l445 -125 435 125 436 125 12 142 c7 77 14 159 16 181 2 22 7 76 10 120 4 44 8 91 10 105 2 14 6 66 10 115 3 50 10 133 15 185 5 52 12 129 15 170 3 41 12 140 20 220 8 80 17 188 21 240 3 52 8 102 9 110 3 15 4 31 30 345 8 99 18 197 21 218 l6 37 -1071 0 -1071 0 5 -37z m1733 -560 l-3 -128 -35 -17 c-19 -9 -154 -65 -300 -125 l-265 -108 278 -3 279 -2 -6 -38 c-6 -36 -16 -149 -52 -577 -9 -110 -20 -204 -24 -208 -4 -5 -65 -26 -136 -48 -71 -23 -186 -58 -255 -80 -70 -21 -135 -39 -145 -39 -13 0 -379 99 -546 147 -13 4 -17 24 -23 96 -3 51 -11 130 -16 177 -5 47 -9 100 -9 118 l0 32 129 0 c100 0 130 -3 134 -14 3 -7 9 -50 12 -95 4 -44 13 -85 19 -89 6 -5 70 -24 143 -42 l132 -32 148 27 c86 15 152 32 159 40 6 8 16 78 23 157 7 79 15 153 18 166 l5 22 -469 0 -469 0 -17 127 c-10 69 -16 127 -15 128 2 2 125 55 273 120 149 64 288 125 310 135 40 18 38 18 -277 19 -293 1 -317 2 -322 19 -5 16 -8 37 -25 185 l-7 57 678 0 679 0 -3 -127z"/> </g> </svg> 