 <svg  version="1.0" xmlns="http://www.w3.org/2000/svg"  width="300.000000pt" height="334.000000pt" viewBox="0 0 300.000000 334.000000"  preserveAspectRatio="xMidYMid meet">  <g transform="translate(0.000000,334.000000) scale(0.100000,-0.100000)" fill="#ffffff" stroke="none"> <path d="M537 3334 c-4 -4 -7 -106 -7 -226 l0 -218 80 0 80 0 0 70 0 70 65 0 65 0 0 -70 0 -70 75 0 75 0 0 225 0 225 -75 0 -75 0 0 -75 0 -75 -65 0 -64 0 -3 73 -3 72 -70 3 c-39 1 -74 0 -78 -4z"/> <path d="M1040 3260 l0 -80 65 0 65 0 0 -145 0 -145 75 0 75 0 0 145 0 145 65 0 65 0 0 80 0 80 -205 0 -205 0 0 -80z"/> <path d="M1520 3115 l0 -225 75 0 74 0 3 103 3 102 45 -72 c25 -40 47 -72 50 -72 3 0 28 35 55 77 l50 77 3 -107 3 -108 69 0 70 0 0 225 0 225 -78 0 -77 0 -45 -75 c-25 -41 -47 -75 -50 -75 -3 0 -25 34 -48 75 l-44 75 -79 0 -79 0 0 -225z"/> <path d="M2100 3115 l0 -225 180 0 180 0 0 75 0 75 -105 0 -105 0 0 150 0 150 -75 0 -75 0 0 -225z"/> <path d="M332 2498 c19 -203 85 -919 154 -1683 25 -275 47 -509 49 -521 5 -22 -39 -8 612 -193 l351 -100 479 136 c263 75 479 136 480 137 1 1 18 173 38 382 19 208 46 498 60 644 14 146 39 416 55 600 17 184 40 427 50 540 11 113 20 213 20 223 0 16 -63 17 -1183 17 l-1183 0 18 -182z m1914 -325 c-2 -10 -7 -54 -11 -98 -3 -44 -8 -104 -11 -132 l-6 -53 -570 0 c-537 0 -569 -1 -564 -17 2 -10 7 -58 11 -108 3 -49 8 -109 12 -132 l5 -43 540 0 540 0 -6 -62 c-3 -35 -22 -238 -42 -453 -20 -214 -37 -391 -39 -393 -1 -1 -138 -41 -305 -88 l-302 -85 -271 76 c-150 42 -286 81 -303 86 -39 12 -39 12 -71 402 l-6 77 151 0 151 0 5 -42 c3 -24 9 -77 13 -117 l8 -75 162 -47 161 -47 159 45 c87 26 159 47 161 48 3 3 32 311 32 348 l0 27 -509 0 -509 0 -6 78 c-4 42 -11 118 -16 167 -5 50 -14 149 -20 220 -6 72 -18 192 -26 267 -8 75 -14 144 -14 153 0 13 81 15 751 15 710 0 750 -1 745 -17z"/> </g> </svg> 