 <svg  version="1.0" xmlns="http://www.w3.org/2000/svg"  width="300.000000pt" height="225.000000pt" viewBox="0 0 300.000000 225.000000"  preserveAspectRatio="xMidYMid meet">  <g transform="translate(0.000000,225.000000) scale(0.100000,-0.100000)" fill="#ffffff" stroke="none"> <path d="M2090 1583 c-26 -9 -40 -35 -40 -73 0 -49 18 -70 66 -77 57 -7 89 20 89 77 0 63 -52 96 -115 73z"/> <path d="M767 1533 l-47 -49 49 -48 c36 -36 59 -50 82 -51 39 -3 69 -36 69 -74 0 -36 85 -121 121 -121 58 0 91 -57 64 -110 -28 -53 -103 -53 -131 1 -8 17 -13 37 -10 45 3 8 -13 34 -39 61 l-45 47 0 -118 c0 -103 3 -121 20 -143 35 -44 25 -95 -22 -119 -75 -39 -141 51 -88 119 17 22 20 40 20 146 0 108 -2 123 -20 141 -12 12 -20 33 -20 53 0 26 -10 43 -48 80 l-48 47 -147 -148 c-107 -108 -147 -155 -147 -172 0 -36 425 -460 461 -460 19 0 75 51 247 223 122 123 222 226 222 231 0 21 -36 60 -230 252 -155 154 -218 210 -238 212 -21 2 -38 -8 -75 -45z"/> <path d="M2377 1493 c-4 -3 -7 -16 -7 -27 0 -36 -37 -83 -74 -97 -33 -12 -36 -17 -36 -51 0 -37 1 -38 35 -38 l35 0 0 -152 c0 -134 3 -157 20 -185 30 -50 101 -64 197 -39 72 19 73 20 60 62 l-11 35 -47 -6 c-40 -6 -51 -3 -68 14 -19 19 -21 33 -21 146 l0 125 65 0 65 0 0 45 0 45 -65 0 -65 0 0 65 0 65 -38 0 c-21 0 -42 -3 -45 -7z"/> <path d="M1630 1349 c-19 -6 -46 -19 -61 -30 -75 -53 -79 -203 -7 -253 l21 -15 -42 -46 c-36 -39 -42 -51 -36 -73 4 -15 13 -30 20 -35 11 -6 9 -15 -10 -44 -29 -41 -31 -63 -10 -103 23 -44 90 -65 210 -65 86 0 107 4 150 25 92 46 125 143 70 209 -29 34 -75 46 -218 57 -85 6 -87 7 -75 26 11 17 26 20 89 22 83 3 127 21 161 67 28 37 34 100 14 140 -9 17 -16 33 -16 35 0 2 17 4 38 6 35 3 37 5 40 41 l3 37 -73 0 c-40 0 -109 2 -153 5 -44 2 -96 0 -115 -6z m147 -101 c24 -23 30 -66 13 -98 -29 -54 -142 -41 -154 17 -8 36 6 78 31 92 31 18 85 13 110 -11z m41 -410 c18 -16 15 -35 -10 -52 -26 -19 -158 -22 -189 -6 -22 12 -25 50 -6 69 14 15 184 6 205 -11z"/> <path d="M2016 1328 c-7 -34 11 -58 41 -58 10 0 13 -33 13 -149 l0 -150 -27 -3 c-24 -3 -28 -8 -31 -40 l-3 -38 126 0 126 0 -3 37 c-2 30 -8 38 -28 43 l-25 6 -3 192 -2 192 -89 0 -88 0 -7 -32z"/> </g> </svg> 