 <svg  version="1.0" xmlns="http://www.w3.org/2000/svg"  width="300.000000pt" height="300.000000pt" viewBox="0 0 300.000000 300.000000"  preserveAspectRatio="xMidYMid meet">  <g transform="translate(0.000000,300.000000) scale(0.050000,-0.050000)" fill="#ffffff" stroke="none"> <path d="M3732 4574 c-61 -45 -48 -136 33 -247 39 -53 99 -171 134 -261 35 -91 80 -184 99 -209 33 -40 34 -54 9 -146 -53 -199 -27 -400 66 -510 87 -104 161 -71 182 81 l11 84 45 -88 c47 -92 282 -332 304 -310 7 7 -6 26 -30 43 -57 39 -216 281 -268 407 -60 144 -103 115 -147 -98 l-23 -110 -41 67 c-59 95 -74 248 -37 389 40 151 40 160 -18 244 -26 39 -67 129 -91 199 -23 70 -78 178 -123 240 -128 179 -71 223 132 101 77 -47 141 -70 190 -70 124 0 313 -110 481 -279 152 -153 167 -177 356 -584 l99 -212 100 -33 c102 -34 365 -190 365 -217 0 -8 -37 -15 -83 -15 -85 0 -237 -37 -237 -58 1 -59 123 -173 260 -242 50 -25 124 -72 165 -104 41 -33 75 -50 75 -38 0 38 -126 164 -244 244 -146 100 -145 107 16 134 73 12 137 27 143 32 39 39 -175 220 -371 313 -107 51 -131 73 -162 144 -273 630 -619 995 -943 995 -31 0 -101 28 -155 62 -118 72 -237 94 -292 52z"/> <path d="M4104 4245 c65 -134 86 -153 108 -97 17 44 -28 112 -74 112 -23 0 -38 -7 -34 -15z"/> <path d="M340 2846 c-73 -26 -80 -66 -80 -461 l0 -387 92 6 92 6 -3 359 c-1 198 1 355 6 350 5 -5 70 -148 144 -319 160 -367 185 -400 299 -400 122 0 137 20 300 390 l150 340 0 -365 0 -365 90 0 90 0 0 398 c0 450 3 442 -157 457 -138 13 -174 -29 -334 -395 -74 -170 -137 -312 -139 -315 -1 -2 -64 140 -139 317 -167 394 -226 450 -411 384z"/> <path d="M2874 2841 c-146 -29 -184 -76 -184 -231 0 -190 33 -213 329 -231 244 -14 281 -31 281 -129 0 -100 -26 -108 -341 -114 l-289 -6 0 -60 0 -60 290 -6 c437 -8 527 36 516 257 -9 182 -47 205 -349 220 -250 12 -266 20 -267 130 0 102 21 109 345 109 l298 0 -7 65 -6 65 -270 3 c-148 2 -304 -4 -346 -12z"/> <path d="M4613 2847 c-25 -25 -14 -654 12 -706 54 -107 137 -130 480 -138 l315 -7 0 72 0 72 -278 0 c-378 0 -342 -39 -342 372 l0 348 -87 0 c-47 0 -92 -6 -100 -13z"/> <path d="M3696 2809 c-89 -48 -100 -91 -97 -395 3 -386 36 -419 414 -413 l210 4 64 -62 c66 -64 273 -96 273 -43 0 11 -7 20 -15 21 -8 0 -44 27 -80 59 l-64 59 49 50 c57 56 77 531 27 639 -50 110 -620 169 -781 81z m585 -110 c36 -19 39 -44 39 -280 0 -282 -3 -288 -106 -212 -60 45 -274 92 -274 61 0 -8 34 -44 75 -81 l75 -68 -120 13 c-172 19 -170 16 -170 299 0 214 5 250 35 267 46 27 397 28 446 1z"/> <path d="M1679 2585 c-44 -501 5 -565 430 -565 l251 0 0 -49 c0 -78 -54 -91 -376 -91 l-299 0 -9 -60 -9 -60 337 0 c535 0 536 1 536 494 l0 346 -96 0 -96 0 8 -240 9 -240 -214 0 c-298 0 -291 -6 -291 261 l0 219 -90 0 c-49 0 -91 -7 -91 -15z"/> <path d="M5460 2120 c0 -11 9 -20 20 -20 11 0 20 -22 20 -50 0 -27 9 -50 20 -50 11 0 20 17 20 38 0 21 5 53 12 70 9 24 -1 32 -40 32 -29 0 -52 -9 -52 -20z"/> <path d="M5580 2070 c0 -69 27 -94 47 -45 8 20 10 20 11 0 3 -37 38 -30 48 10 9 33 9 33 12 0 4 -66 42 -35 42 35 0 76 -45 98 -69 35 -13 -33 -15 -33 -33 0 -32 56 -58 40 -58 -35z"/> </g> </svg> 